<?xml version="1.0" encoding="UTF-8" standalone="no"?>
<svg width="409px" height="181px" viewBox="0 0 409 181" version="1.1" xmlns="http://www.w3.org/2000/svg" xmlns:xlink="http://www.w3.org/1999/xlink">
    <!-- Generator: Sketch 48.2 (47327) - http://www.bohemiancoding.com/sketch -->
    <title>Desktop HD Copy 11</title>
    <desc>Created with Sketch.</desc>
    <defs></defs>
    <g id="Desktop-HD-Copy-11" stroke="none" stroke-width="1" fill="none" fill-rule="evenodd" transform="translate(-238.000000, -69.000000)">
        <text id="MyGRANT" font-family="CamphorPro-Thin, Camphor Pro" font-size="38" font-style="condensed" font-weight="300" fill="#FF6E6E">
            <tspan x="249" y="169">MyGRANT</tspan>
        </text>
        <g id="Group-4" transform="translate(443.000000, 85.000000)">
            <g id="hacker-copy">
                <path d="M177,85.6637168 C177,38.3537876 139.167238,0 92.5,0 C45.8327625,0 8,38.3537876 8,85.6637168 C8,98.2669912 10.7061125,110.223504 15.52895,121 L169.47105,121 C174.293887,110.223504 177,98.2669912 177,85.6637168" id="Fill-1" fill="#FEF2EE"></path>
                <path d="M9,121 L174,121" id="Stroke-3" stroke="#FF6E6E" stroke-linecap="round" stroke-linejoin="round"></path>
                <path d="M0,121 L5,121" id="Stroke-5" stroke="#FF6E6E" stroke-linecap="round" stroke-linejoin="round"></path>
                <path d="M179,121 L184,121" id="Stroke-7" stroke="#FF6E6E" stroke-linecap="round" stroke-linejoin="round"></path>
                <path d="M141,104.021739 C141,85.783087 126.450484,71 108.5,71 C90.5495161,71 76,85.783087 76,104.021739 L76,120 L141,120 L141,104.021739 Z" id="Stroke-13" stroke="#4550E6" stroke-linecap="round" stroke-linejoin="round"></path>
                <path d="M61,106 L61,122.935484 L136.315226,122.935484 C135.141742,125.550323 131.860839,127.451613 127.961355,127.451613 L117.096774,127.451613 L117.096774,141 L127.961355,141 C131.060323,141 134.028903,140.589032 136.806452,139.870968 C146.536968,137.350968 153.75071,130.816129 154.83929,122.935484 L155,120.864839 L155,118.419355 L155,106 C153,86 133,74 108,71 C82,74 62,87 61,106 Z" id="Fill-15" fill="#FFFFFF"></path>
                <path d="M108,71 C91.930043,71 61,86.6687097 61,106 L61,122.935484 L140.27133,122.935484 C139.544888,125.550323 136.513853,127.451613 134.099886,127.451613 L113.631336,127.451613 L113.631336,142 C115.058694,142 116.016502,142 116.504762,142 C117.511101,142 118.79519,142 120.357029,142 C122.275438,142 142.017892,141.589032 143.737327,140.870968 C149.76098,138.350968 154.22663,130.816129 154.900513,122.935484 L155,106 C155,86.6687097 124.069957,71 108,71 Z" id="Stroke-17" stroke="#FA7074" stroke-linecap="round" stroke-linejoin="round"></path>
                <path d="M124,85 C122.011721,88.0549333 117.809476,89.6624 115.062344,92.0474667 C112.554738,94.2256 109,98.1658667 109,103 C109,98.1936 105.487656,94.2704 102.984289,92.0858667 C100.194763,89.6517333 96.011596,88.1146667 94,85 C92.4081047,82.5424 88.871197,78.8821333 88,76 C87.9809227,75.9573333 102.984289,70 109,71 C115.015711,72 125.0399,73.9706667 130,77 C129.111845,79.9930667 125.651247,82.4613333 124,85 Z" id="Fill-19" fill="#FFA3A3"></path>
                <path d="M130,77 C129,83 117.809476,89.6624 115.062344,92.0474667 C112.554738,94.2256 109,98.1658667 109,103 C109,98.1936 105.487656,94.2704 102.984289,92.0858667 C100.194763,89.6517333 89,83 88,76 C87.9910808,75.980052 92.1535126,74.1596234 96,73 C100.380741,71.6793119 105.692985,71 109,71 C115.210723,71 125.0399,73.9706667 130,77 Z" id="Stroke-21" stroke="#FA7074" stroke-linecap="round" stroke-linejoin="round"></path>
                <path d="M117,75.8709306 C112.303143,80.0430231 104.694429,80.0430231 100,75.8709306 L100,64 L117,64 L117,75.8709306 Z" id="Fill-23" fill="#FFE0E0"></path>
                <path d="M117,64 L117,75.8709306 C112.303143,80.0430231 104.694429,80.0430231 100,75.8709306 L100,64 L117,64 Z" id="Stroke-25" stroke="#FF6E6E" stroke-linecap="round" stroke-linejoin="round"></path>
                <path d="M140,103 L140,119.545455 L140,122.105273" id="Stroke-27" stroke="#F5737A" stroke-linecap="round" stroke-linejoin="round"></path>
                <path d="M109,103 L109,121" id="Stroke-29" stroke="#FF6E6E" stroke-linecap="round" stroke-linejoin="round"></path>
                <path d="M130.75,43 L130.75,37.6 C130.75,25.67032 121.23425,16 109.5,16 C97.763625,16 88.25,25.67032 88.25,37.6 L88.25,43 C85.904,43 84,44.93536 84,47.32 C84,49.70464 85.904,51.64 88.25,51.64 C88.33925,51.64 88.422125,51.6184 88.50925,51.61408 C90.041375,62.01448 98.838875,70 109.5,70 C120.159,70 128.958625,62.01448 130.488625,51.61408 C130.577875,51.6184 130.66075,51.64 130.75,51.64 C133.096,51.64 135,49.70464 135,47.32 C135,44.93536 133.096,43 130.75,43" id="Fill-31" fill="#FFE0E0"></path>
                <path d="M103,57 C106.936513,61 112.063487,61 116,57" id="Stroke-37" stroke="#FF6E6E" stroke-linecap="round" stroke-linejoin="round"></path>
                <path d="M98,45 C99.8168523,47.6666667 102.183148,47.6666667 104,45" id="Stroke-37-Copy" stroke="#FF6E6E" stroke-linecap="round" stroke-linejoin="round"></path>
                <path d="M114,45 C115.816852,47.6666667 118.183148,47.6666667 120,45" id="Stroke-37-Copy-2" stroke="#FF6E6E" stroke-linecap="round" stroke-linejoin="round"></path>
                <path d="M130.75,43 L130.75,37.6 C130.75,25.67032 121.23425,16 109.5,16 C97.763625,16 88.25,25.67032 88.25,37.6 L88.25,43 C85.904,43 84,44.93536 84,47.32 C84,49.70464 85.904,51.64 88.25,51.64 C88.33925,51.64 88.422125,51.6184 88.50925,51.61408 C90.041375,62.01448 98.838875,70 109.5,70 C120.159,70 128.958625,62.01448 130.488625,51.61408 C130.577875,51.6184 130.66075,51.64 130.75,51.64 C133.096,51.64 135,49.70464 135,47.32 C135,44.93536 133.096,43 130.75,43 Z" id="Stroke-39" stroke="#FF6E6E" stroke-linecap="round" stroke-linejoin="round"></path>
                <path d="M114,127 L107,127 C103.686,127 101,129.909833 101,133.5 C101,137.090167 103.686,140 107,140 L114,140 L114,127 Z" id="Fill-53" fill="#FFE0E0"></path>
                <path d="M114,127 L107,127 C103.686,127 101,129.909833 101,133.5 C101,137.090167 103.686,140 107,140 L114,140 L114,127 Z" id="Stroke-55" stroke="#FF6E6E" stroke-linecap="round" stroke-linejoin="round"></path>
                <g id="Group-2" transform="translate(33.000000, 97.000000)">
                    <path d="M5,47.5 C5,49.4343333 24.9235162,51 49.5010544,51 C74.0764838,51 94,49.4343333 94,47.5 C94,45.568 74.0764838,44 49.5010544,44 C24.9235162,44 5,45.568 5,47.5" id="Fill-59" fill="#FEF2EE"></path>
                    <path d="M59.8568295,39 L65,39 L52.7178019,1.7615 C52.3756549,0.710666667 51.3864993,0 50.2701353,0 L47,0 L59.8568295,39 Z" id="Fill-61" fill="#FFFFFF"></path>
                    <path d="M59.8568295,39 L65,39 L52.7178019,1.7615 C52.3756549,0.710666667 51.3864993,0 50.2701353,0 L47,0 L59.8568295,39 Z" id="Stroke-63" stroke="#FF6E6E" stroke-linejoin="round"></path>
                    <path d="M11.3134281,39 L59,39 L46.772246,0 L2.4461162,0 C1.66389038,0 0.927555142,0.387833333 0.468649328,1.04433333 C0.00765757814,1.70083333 -0.121670424,2.54583333 0.118212161,3.31933333 L11.3134281,39 Z" id="Fill-65" fill="#FFFFFF"></path>
                    <path d="M11.3134281,39 L60,39 L46.772246,0 L2.4461162,0 C1.66389038,0 0.927555142,0.387833333 0.468649328,1.04433333 C0.00765757814,1.70083333 -0.121670424,2.54583333 0.118212161,3.31933333 L11.3134281,39 Z" id="Stroke-67" stroke="#FA7074" stroke-linejoin="round"></path>
                    <path d="M11,38 L62,38 L62,45 L15.913,45 C13.161125,45 11,42.55 11,39.5283333 L11,38 Z" id="Fill-69" fill="#FFFFFF"></path>
                    <path d="M11,38 L62,38 L62,45 L15.913,45 C13.161125,45 11,42.55 11,39.5283333 L11,38 Z" id="Stroke-71" stroke="#FF6E6E" stroke-linejoin="round"></path>
                    <path d="M62,38 L86,38 L86,39.5283333 C86,42.55 83.8086957,45 81.106087,45 L62,45 L62,38 Z" id="Fill-73" fill="#FFFFFF"></path>
                    <path d="M62,38 L86,38 L86,39.5283333 C86,42.55 83.8086957,45 81.106087,45 L62,45 L62,38 Z" id="Stroke-75" stroke="#FF6E6E" stroke-linejoin="round"></path>
                    <path d="M35.0633182,16.7637941 C35.3435841,15.7419499 36.5553816,15.7461037 37.2469731,16.7721018 C38.7208899,18.9611746 39.4608727,20.0536341 40.9368057,22.2385531 C42.414755,24.423472 43.1547378,25.5159315 44.6367197,27.6987736 C45.3303276,28.7226947 44.9815073,30 44.0076335,30 C41.9268099,30 40.8884144,29.9979231 38.8055745,29.9979231 C36.7267672,29.9979231 35.6883718,29.9958462 33.6075482,29.9958462 C32.6336743,29.9958462 31.7706971,28.7123101 32.0549957,27.686312 C32.6598863,25.4993162 32.9603152,24.4068567 33.5631895,22.2219377 C34.1660638,20.0370187 34.4644765,18.9466362 35.0633182,16.7637941 Z" id="Stroke-81" stroke="#FF6E6E" stroke-linejoin="round"></path>
                    <path d="M13,10 C17.7950682,11.2019672 20.1959649,11.8039344 25,13" id="Stroke-95" stroke="#FF6E6E"></path>
                    <path d="M15,14 C18.1967121,14.8013115 19.7973099,15.202623 23,16" id="Stroke-95-Copy" stroke="#FF6E6E"></path>
                </g>
            </g>
            <path d="M137.008197,34.8559988 C135.785919,33.7297657 134.513753,32.8444154 133.310183,32.2020611 C137.17865,32.3668757 140.234345,31.2998068 140.485868,29.5185414 C140.778965,27.4393418 137.149549,25.1826496 132.374767,24.4895831 C129.177721,24.0268344 126.178152,24.6903188 126.178152,24.6903188 C126.178152,24.6903188 128.574897,24.2846213 129.83667,24.1198067 C134.619767,23.5028085 138.286599,21.3116195 138.024683,19.228194 C137.764845,17.1447684 133.676035,15.9572581 128.892939,16.5763693 C126.579342,16.8721904 124.542212,17.5441268 123.07049,18.3872169 C123.436342,18.0956218 123.804273,17.7998008 124.163888,17.4680586 C127.749652,14.1886706 129.5311,10.2648154 128.148763,8.7033027 C126.766425,7.14390303 122.742055,8.53637509 119.15837,11.815763 C117.12332,13.6794358 115.697329,15.7375053 115.073718,17.4638325 C114.529098,17.311696 113.978241,17.1743505 113.414913,17.0665871 C114.161167,16.1410897 114.87832,15.0571168 115.510246,13.8231203 C117.736537,9.4745505 118.0525,5.16401484 116.219084,4.19414431 C114.479209,3.27498597 111.427672,5.7049448 109.220089,9.67739924 C107.010427,5.7049448 103.963048,3.27498597 102.221095,4.19414431 C100.387678,5.16401484 100.703641,9.4745505 102.927854,13.8231203 C103.55978,15.0571168 104.279011,16.1410897 105.023187,17.0665871 C104.461937,17.1743505 103.911081,17.311696 103.364382,17.4638325 C102.742849,15.7375053 101.316859,13.6794358 99.281808,11.815763 C95.6981233,8.53637509 91.6716747,7.14390303 90.2893369,8.7033027 C88.9069992,10.2648154 90.6905267,14.1886706 94.2742114,17.4680586 C94.6359058,17.7998008 95.0038363,18.0956218 95.3717669,18.3872169 C93.8979661,17.5441268 91.858758,16.8721904 89.5472398,16.5763693 C84.7620645,15.9572581 80.6732548,17.1447684 80.4134169,19.228194 C80.153579,21.3116195 83.8204118,23.5028085 88.6035085,24.1198067 C90.050286,24.3099774 92.2620265,24.6903188 92.2620265,24.6903188 C92.2620265,24.6903188 88.4226613,24.1472758 86.0633328,24.4895831 C81.2906297,25.1911016 77.6591348,27.4393418 77.9543107,29.5185414 C78.2058338,31.2998068 81.2615279,32.3668757 85.129995,32.2020611 C83.9264257,32.8444154 82.6542592,33.7297657 81.4319816,34.8559988 C77.8566117,38.1459517 76.0855563,42.076146 77.4720515,43.6292066 C78.5737643,44.8674291 81.3342825,44.2166228 84.2132868,42.2557516 C83.8411989,42.8621849 83.4815832,43.4960872 83.1552267,44.1828147 C81.057815,48.5990007 80.8686529,52.9158754 82.7290925,53.8286947 C83.8744581,54.3928678 85.5332635,53.5286476 87.1297077,51.7494952 C85.4729811,51.1937741 84.2756479,49.6069054 84.2756479,47.7390066 C84.2756479,45.4041331 86.1360875,43.5129912 88.4330548,43.5129912 C90.5117582,43.5129912 91.515772,44.9540625 91.515772,47.1051043 C91.515772,47.1051043 92.7650727,43.0164344 91.9585358,38.1269346 C94.1494892,38.8664873 97.7518823,35.6927498 97.7518823,35.6927498 L97.7518823,30.6236444 C97.7518823,30.6236444 105.364094,32.9162577 109.220089,32.9162577 C113.074005,32.9162577 120.686217,30.6236444 120.686217,30.6236444 L120.686217,35.6927498 C120.686217,35.6927498 124.290689,38.8664873 126.481643,38.1269346 C125.677184,43.0164344 126.922328,47.1051043 126.922328,47.1051043 C126.922328,44.9540625 127.92842,43.5129912 130.007124,43.5129912 C132.302012,43.5129912 134.16453,45.4041331 134.16453,47.7390066 C134.16453,49.6069054 132.967197,51.1937741 131.310471,51.7494952 C132.902757,53.5286476 134.563642,54.3928678 135.711086,53.8286947 C137.571525,52.9158754 137.382363,48.5990007 135.284952,44.1828147 C134.958595,43.4960872 134.598979,42.8621849 134.226892,42.2557516 C137.105896,44.2166228 139.866414,44.8674291 140.966048,43.6292066 C142.354622,42.076146 140.583567,38.1459517 137.008197,34.8559988" id="Fill-54-Copy" fill="#FFA3A3"></path>
            <path d="M137.008197,34.8559988 C135.785919,33.7297657 134.513753,32.8444154 133.310183,32.2020611 C137.17865,32.3668757 140.234345,31.2998068 140.485868,29.5185414 C140.778965,27.4393418 137.149549,25.1826496 132.374767,24.4895831 C129.177721,24.0268344 126.178152,24.6903188 126.178152,24.6903188 C126.178152,24.6903188 128.574897,24.2846213 129.83667,24.1198067 C134.619767,23.5028085 138.286599,21.3116195 138.024683,19.228194 C137.764845,17.1447684 133.676035,15.9572581 128.892939,16.5763693 C126.579342,16.8721904 124.542212,17.5441268 123.07049,18.3872169 C123.436342,18.0956218 123.804273,17.7998008 124.163888,17.4680586 C127.749652,14.1886706 129.5311,10.2648154 128.148763,8.7033027 C126.766425,7.14390303 122.742055,8.53637509 119.15837,11.815763 C117.12332,13.6794358 115.697329,15.7375053 115.073718,17.4638325 C114.529098,17.311696 113.978241,17.1743505 113.414913,17.0665871 C114.161167,16.1410897 114.87832,15.0571168 115.510246,13.8231203 C117.736537,9.4745505 118.0525,5.16401484 116.219084,4.19414431 C114.479209,3.27498597 111.427672,5.7049448 109.220089,9.67739924 C107.010427,5.7049448 103.963048,3.27498597 102.221095,4.19414431 C100.387678,5.16401484 100.703641,9.4745505 102.927854,13.8231203 C103.55978,15.0571168 104.279011,16.1410897 105.023187,17.0665871 C104.461937,17.1743505 103.911081,17.311696 103.364382,17.4638325 C102.742849,15.7375053 101.316859,13.6794358 99.281808,11.815763 C95.6981233,8.53637509 91.6716747,7.14390303 90.2893369,8.7033027 C88.9069992,10.2648154 90.6905267,14.1886706 94.2742114,17.4680586 C94.6359058,17.7998008 95.0038363,18.0956218 95.3717669,18.3872169 C93.8979661,17.5441268 91.858758,16.8721904 89.5472398,16.5763693 C84.7620645,15.9572581 80.6732548,17.1447684 80.4134169,19.228194 C80.153579,21.3116195 83.8204118,23.5028085 88.6035085,24.1198067 C90.050286,24.3099774 92.2620265,24.6903188 92.2620265,24.6903188 C92.2620265,24.6903188 88.4226613,24.1472758 86.0633328,24.4895831 C81.2906297,25.1911016 77.6591348,27.4393418 77.9543107,29.5185414 C78.2058338,31.2998068 81.2615279,32.3668757 85.129995,32.2020611 C83.9264257,32.8444154 82.6542592,33.7297657 81.4319816,34.8559988 C77.8566117,38.1459517 76.0855563,42.076146 77.4720515,43.6292066 C78.5737643,44.8674291 81.3342825,44.2166228 84.2132868,42.2557516 C83.8411989,42.8621849 83.4815832,43.4960872 83.1552267,44.1828147 C81.057815,48.5990007 80.8686529,52.9158754 82.7290925,53.8286947 C83.8744581,54.3928678 85.5332635,53.5286476 87.1297077,51.7494952 C85.4729811,51.1937741 84.2756479,49.6069054 84.2756479,47.7390066 C84.2756479,45.4041331 86.1360875,43.5129912 88.4330548,43.5129912 C90.5117582,43.5129912 91.515772,44.9540625 91.515772,47.1051043 C91.515772,47.1051043 92.7650727,43.0164344 91.9585358,38.1269346 C94.1494892,38.8664873 97.7518823,35.6927498 97.7518823,35.6927498 L97.7518823,30.6236444 C97.7518823,30.6236444 105.364094,32.9162577 109.220089,32.9162577 C113.074005,32.9162577 120.686217,30.6236444 120.686217,30.6236444 L120.686217,35.6927498 C120.686217,35.6927498 124.290689,38.8664873 126.481643,38.1269346 C125.677184,43.0164344 126.922328,47.1051043 126.922328,47.1051043 C126.922328,44.9540625 127.92842,43.5129912 130.007124,43.5129912 C132.302012,43.5129912 134.16453,45.4041331 134.16453,47.7390066 C134.16453,49.6069054 132.967197,51.1937741 131.310471,51.7494952 C132.902757,53.5286476 134.563642,54.3928678 135.711086,53.8286947 C137.571525,52.9158754 137.382363,48.5990007 135.284952,44.1828147 C134.958595,43.4960872 134.598979,42.8621849 134.226892,42.2557516 C137.105896,44.2166228 139.866414,44.8674291 140.966048,43.6292066 C142.354622,42.076146 140.583567,38.1459517 137.008197,34.8559988 Z" id="Stroke-55-Copy" stroke="#FF6E6E" stroke-linecap="round" stroke-linejoin="round"></path>
            <path d="M137.008197,34.8559988 C135.785919,33.7297657 134.513753,32.8444154 133.310183,32.2020611 C137.17865,32.3668757 140.234345,31.2998068 140.485868,29.5185414 C140.778965,27.4393418 137.149549,25.1826496 132.374767,24.4895831 C129.177721,24.0268344 126.178152,24.6903188 126.178152,24.6903188 C126.178152,24.6903188 128.574897,24.2846213 129.83667,24.1198067 C134.619767,23.5028085 138.286599,21.3116195 138.024683,19.228194 C137.764845,17.1447684 133.676035,15.9572581 128.892939,16.5763693 C126.579342,16.8721904 124.542212,17.5441268 123.07049,18.3872169 C123.436342,18.0956218 123.804273,17.7998008 124.163888,17.4680586 C127.749652,14.1886706 129.5311,10.2648154 128.148763,8.7033027 C126.766425,7.14390303 122.742055,8.53637509 119.15837,11.815763 C117.12332,13.6794358 115.697329,15.7375053 115.073718,17.4638325 C114.529098,17.311696 113.978241,17.1743505 113.414913,17.0665871 C114.161167,16.1410897 114.87832,15.0571168 115.510246,13.8231203 C117.736537,9.4745505 118.0525,5.16401484 116.219084,4.19414431 C114.479209,3.27498597 111.427672,5.7049448 109.220089,9.67739924 C107.010427,5.7049448 103.963048,3.27498597 102.221095,4.19414431 C100.387678,5.16401484 100.703641,9.4745505 102.927854,13.8231203 C103.55978,15.0571168 104.279011,16.1410897 105.023187,17.0665871 C104.461937,17.1743505 103.911081,17.311696 103.364382,17.4638325 C102.742849,15.7375053 101.316859,13.6794358 99.281808,11.815763 C95.6981233,8.53637509 91.6716747,7.14390303 90.2893369,8.7033027 C88.9069992,10.2648154 90.6905267,14.1886706 94.2742114,17.4680586 C94.6359058,17.7998008 95.0038363,18.0956218 95.3717669,18.3872169 C93.8979661,17.5441268 91.858758,16.8721904 89.5472398,16.5763693 C84.7620645,15.9572581 80.6732548,17.1447684 80.4134169,19.228194 C80.153579,21.3116195 83.8204118,23.5028085 88.6035085,24.1198067 C90.050286,24.3099774 92.2620265,24.6903188 92.2620265,24.6903188 C92.2620265,24.6903188 88.4226613,24.1472758 86.0633328,24.4895831 C81.2906297,25.1911016 77.6591348,27.4393418 77.9543107,29.5185414 C78.2058338,31.2998068 81.2615279,32.3668757 85.129995,32.2020611 C83.9264257,32.8444154 82.6542592,33.7297657 81.4319816,34.8559988 C77.8566117,38.1459517 76.0855563,42.076146 77.4720515,43.6292066 C78.5737643,44.8674291 81.3342825,44.2166228 84.2132868,42.2557516 C83.8411989,42.8621849 83.4815832,43.4960872 83.1552267,44.1828147 C81.057815,48.5990007 80.8686529,52.9158754 82.7290925,53.8286947 C83.8744581,54.3928678 85.5332635,53.5286476 87.1297077,51.7494952 C85.4729811,51.1937741 84.2756479,49.6069054 84.2756479,47.7390066 C84.2756479,45.4041331 86.1360875,43.5129912 88.4330548,43.5129912 C90.5117582,43.5129912 91.515772,44.9540625 91.515772,47.1051043 C91.515772,47.1051043 92.7650727,43.0164344 91.9585358,38.1269346 C94.1494892,38.8664873 97.7518823,35.6927498 97.7518823,35.6927498 L97.7518823,30.6236444 C97.7518823,30.6236444 105.364094,32.9162577 109.220089,32.9162577 C113.074005,32.9162577 120.686217,30.6236444 120.686217,30.6236444 L120.686217,35.6927498 C120.686217,35.6927498 124.290689,38.8664873 126.481643,38.1269346 C125.677184,43.0164344 126.922328,47.1051043 126.922328,47.1051043 C126.922328,44.9540625 127.92842,43.5129912 130.007124,43.5129912 C132.302012,43.5129912 134.16453,45.4041331 134.16453,47.7390066 C134.16453,49.6069054 132.967197,51.1937741 131.310471,51.7494952 C132.902757,53.5286476 134.563642,54.3928678 135.711086,53.8286947 C137.571525,52.9158754 137.382363,48.5990007 135.284952,44.1828147 C134.958595,43.4960872 134.598979,42.8621849 134.226892,42.2557516 C137.105896,44.2166228 139.866414,44.8674291 140.966048,43.6292066 C142.354622,42.076146 140.583567,38.1459517 137.008197,34.8559988 Z" id="Stroke-55-Copy-2" stroke="#FF6E6E" stroke-linecap="round" stroke-linejoin="round"></path>
        </g>
    </g>
</svg>