<?xml version="1.0" encoding="UTF-8" standalone="no"?>
<svg width="180px" height="42px" viewBox="0 0 180 42" version="1.1" xmlns="http://www.w3.org/2000/svg" xmlns:xlink="http://www.w3.org/1999/xlink">
    <!-- Generator: Sketch 49 (51002) - http://www.bohemiancoding.com/sketch -->
    <title>Group 3</title>
    <desc>Created with Sketch.</desc>
    <defs></defs>
    <g id="Page-1-Copy" stroke="none" stroke-width="1" fill="none" fill-rule="evenodd">
        <g id="Artboard-2" transform="translate(-1021.000000, -25.000000)">
            <g id="Group-3" transform="translate(1019.000000, 25.000000)">
                <text id="MyGRANT" font-family="CamphorPro-Thin, Camphor Pro" font-size="28" font-style="condensed" font-weight="300" fill="#FFFFFF">
                    <tspan x="0" y="35">MyGRANT</tspan>
                </text>
                <g id="Group-4" transform="translate(129.000000, 0.000000)">
                    <g id="hacker-copy">
                        <path d="M52.0217391,25.0845951 C52.0217391,11.2310003 41.0193501,0 27.4477506,0 C13.8761511,0 2.87376215,11.2310003 2.87376215,25.0845951 C2.87376215,28.7751662 3.66074413,32.2763485 5.06330452,35.4319906 L49.8321968,35.4319906 C51.2347571,32.2763485 52.0217391,28.7751662 52.0217391,25.0845951" id="Fill-1" fill="#FEF2EE"></path>
                        <path d="M0,35.4319906 L1.41304348,35.4319906" id="Stroke-5" stroke="#FF6E6E" stroke-linecap="round" stroke-linejoin="round"></path>
                        <path d="M50.5869565,35.4319906 L52,35.4319906" id="Stroke-7" stroke="#FF6E6E" stroke-linecap="round" stroke-linejoin="round"></path>
                        <path d="M39.8478261,30.6006243 C39.8478261,25.4105987 35.7360063,21.2038953 30.6630435,21.2038953 C25.5900806,21.2038953 21.4782609,25.4105987 21.4782609,30.6006243 L21.4782609,35.1474287 L39.8478261,35.1474287 L39.8478261,30.6006243 Z" id="Stroke-13" stroke="#4550E6" stroke-linecap="round" stroke-linejoin="round"></path>
                        <path d="M17.2391304,31.163562 L17.2391304,35.9827556 L38.5238682,35.9827556 C38.1922314,36.726839 37.2650196,37.2678738 36.1629916,37.2678738 L33.0925666,37.2678738 L33.0925666,41.1232287 L36.1629916,41.1232287 C37.0387868,41.1232287 37.8777335,41.0062829 38.6626928,40.8019491 C41.4126213,40.0848531 43.4512875,38.225287 43.7589299,35.9827556 L43.8043478,35.3935288 L43.8043478,34.6976373 L43.8043478,31.163562 C43.2391304,25.4723239 37.5869565,22.057581 30.5217391,21.2038953 C23.173913,22.057581 17.5217391,25.7568858 17.2391304,31.163562 Z" id="Fill-15" fill="#FFFFFF"></path>
                        <path d="M30.5217391,21.2038953 C25.9802295,21.2038953 17.2391304,25.6626132 17.2391304,31.163562 L17.2391304,35.9827556 L39.6418977,35.9827556 C39.4365987,36.726839 38.5800018,37.2678738 37.897794,37.2678738 L32.1132038,37.2678738 L32.1132038,41.4077906 C32.5165874,41.4077906 32.7872724,41.4077906 32.9252588,41.4077906 C33.2096589,41.4077906 33.5725536,41.4077906 34.013943,41.4077906 C34.556102,41.4077906 40.1354914,41.2908448 40.6214186,41.086511 C42.3237552,40.369415 43.5857867,38.225287 43.776232,35.9827556 L43.8043478,31.163562 C43.8043478,25.6626132 35.0632487,21.2038953 30.5217391,21.2038953 Z" id="Stroke-17" stroke="#FA7074" stroke-linecap="round" stroke-linejoin="round"></path>
                        <path d="M35.0434783,25.187762 C34.4815732,26.0570796 33.2939824,26.5145034 32.517619,27.1932025 C31.8089477,27.8130163 30.8043478,28.9342661 30.8043478,30.3098763 C30.8043478,28.9421579 29.8117288,27.8257647 29.1042557,27.2041297 C28.3159113,26.5114681 27.1337119,26.0740775 26.5652174,25.187762 C26.1153339,24.4884226 25.1157731,23.4468502 24.8695652,22.6267048 C24.8641738,22.6145635 29.1042557,20.9193334 30.8043478,21.2038953 C32.50444,21.4884572 35.3373631,22.0492339 36.7391304,22.9112667 C36.4881302,23.7629795 35.510135,24.4653542 35.0434783,25.187762 Z" id="Fill-19" fill="#FF6E6E"></path>
                        <path d="M36.7391304,22.9112667 C36.4565217,24.6186382 33.2939824,26.5145034 32.517619,27.1932025 C31.8089477,27.8130163 30.8043478,28.9342661 30.8043478,30.3098763 C30.8043478,28.9421579 29.8117288,27.8257647 29.1042557,27.2041297 C28.3159113,26.5114681 25.1521739,24.6186382 24.8695652,22.6267048 C24.8670446,22.6210284 26.043384,22.1030037 27.1304348,21.7730191 C28.3684704,21.3972016 29.8697565,21.2038953 30.8043478,21.2038953 C32.5595522,21.2038953 35.3373631,22.0492339 36.7391304,22.9112667 Z" id="Stroke-21" stroke="#FA7074" stroke-linecap="round" stroke-linejoin="round"></path>
                        <path d="M33.0652174,22.5899766 C31.7378447,23.7771952 29.5875559,23.7771952 28.2608696,22.5899766 L28.2608696,19.211962 L33.0652174,19.211962 L33.0652174,22.5899766 Z" id="Fill-23" fill="#FFE0E0"></path>
                        <path d="M33.0652174,19.211962 L33.0652174,22.5899766 C31.7378447,23.7771952 29.5875559,23.7771952 28.2608696,22.5899766 L28.2608696,19.211962 L33.0652174,19.211962 Z" id="Stroke-25" stroke="#FF6E6E" stroke-linecap="round" stroke-linejoin="round"></path>
                        <path d="M39.5652174,30.3098763 L39.5652174,35.0180824 L39.5652174,35.7465091" id="Stroke-27" stroke="#F5737A" stroke-linecap="round" stroke-linejoin="round"></path>
                        <path d="M30.8043478,30.3098763 L30.8043478,35.4319906" id="Stroke-29" stroke="#FF6E6E" stroke-linecap="round" stroke-linejoin="round"></path>
                        <path d="M36.951087,13.2361619 L36.951087,11.6995277 C36.951087,8.30479518 34.2618533,5.55299049 30.9456522,5.55299049 C27.6288505,5.55299049 24.9402174,8.30479518 24.9402174,11.6995277 L24.9402174,13.2361619 C24.2772174,13.2361619 23.7391304,13.7868917 23.7391304,14.4654694 C23.7391304,15.1440471 24.2772174,15.6947768 24.9402174,15.6947768 C24.9654402,15.6947768 24.9888614,15.6886303 25.0134837,15.687401 C25.4464755,18.6469586 27.9327255,20.9193334 30.9456522,20.9193334 C33.9579783,20.9193334 36.4448288,18.6469586 36.8772201,15.687401 C36.9024429,15.6886303 36.9258641,15.6947768 36.951087,15.6947768 C37.614087,15.6947768 38.1521739,15.1440471 38.1521739,14.4654694 C38.1521739,13.7868917 37.614087,13.2361619 36.951087,13.2361619" id="Fill-31" fill="#FFE0E0"></path>
                        <path d="M36.951087,13.2361619 L36.951087,11.6995277 C36.951087,8.30479518 34.2618533,5.55299049 30.9456522,5.55299049 C27.6288505,5.55299049 24.9402174,8.30479518 24.9402174,11.6995277 L24.9402174,13.2361619 C24.2772174,13.2361619 23.7391304,13.7868917 23.7391304,14.4654694 C23.7391304,15.1440471 24.2772174,15.6947768 24.9402174,15.6947768 C24.9654402,15.6947768 24.9888614,15.6886303 25.0134837,15.687401 C25.4464755,18.6469586 27.9327255,20.9193334 30.9456522,20.9193334 C33.9579783,20.9193334 36.4448288,18.6469586 36.8772201,15.687401 C36.9024429,15.6886303 36.9258641,15.6947768 36.951087,15.6947768 C37.614087,15.6947768 38.1521739,15.1440471 38.1521739,14.4654694 C38.1521739,13.7868917 37.614087,13.2361619 36.951087,13.2361619 Z" id="Stroke-39" stroke="#FF6E6E" stroke-linecap="round" stroke-linejoin="round"></path>
                        <path d="M32.2173913,37.139362 L30.2391304,37.139362 C29.3025652,37.139362 28.5434783,37.9673897 28.5434783,38.9890144 C28.5434783,40.0106391 29.3025652,40.8386668 30.2391304,40.8386668 L32.2173913,40.8386668 L32.2173913,37.139362 Z" id="Fill-53" fill="#FFE0E0"></path>
                        <path d="M32.2173913,37.139362 L30.2391304,37.139362 C29.3025652,37.139362 28.5434783,37.9673897 28.5434783,38.9890144 C28.5434783,40.0106391 29.3025652,40.8386668 30.2391304,40.8386668 L32.2173913,40.8386668 L32.2173913,37.139362 Z" id="Stroke-55" stroke="#FF6E6E" stroke-linecap="round" stroke-linejoin="round"></path>
                        <g id="Group-2" transform="translate(9.326087, 28.602505)">
                            <path d="M16.9160605,11.0979143 L18.3695652,11.0979143 L14.8985092,0.501255797 C14.8018155,0.202228661 14.5222715,0 14.2067774,0 L13.2826087,0 L16.9160605,11.0979143 Z" id="Fill-61" fill="#FFFFFF"></path>
                            <path d="M16.9160605,11.0979143 L18.3695652,11.0979143 L14.8985092,0.501255797 C14.8018155,0.202228661 14.5222715,0 14.2067774,0 L13.2826087,0 L16.9160605,11.0979143 Z" id="Stroke-63" stroke="#FF6E6E" stroke-linejoin="round"></path>
                            <path d="M3.19727316,11.0979143 L16.673913,11.0979143 L13.2182434,0 L0.691293709,0 C0.47022989,0 0.262135149,0.110362592 0.132444375,0.297177483 C0.00216409817,0.483992375 -0.0343851198,0.724447185 0.0334077845,0.944555819 L3.19727316,11.0979143 Z" id="Fill-65" fill="#FFFFFF"></path>
                            <path d="M3.19727316,11.0979143 L16.9565217,11.0979143 L13.2182434,0 L0.691293709,0 C0.47022989,0 0.262135149,0.110362592 0.132444375,0.297177483 C0.00216409817,0.483992375 -0.0343851198,0.724447185 0.0334077845,0.944555819 L3.19727316,11.0979143 Z" id="Stroke-67" stroke="#FA7074" stroke-linejoin="round"></path>
                            <path d="M3.10869565,10.8133524 L17.5217391,10.8133524 L17.5217391,12.8052858 L4.49715217,12.8052858 C3.71944837,12.8052858 3.10869565,12.1081091 3.10869565,11.2482579 L3.10869565,10.8133524 Z" id="Fill-69" fill="#FFFFFF"></path>
                            <path d="M3.10869565,10.8133524 L17.5217391,10.8133524 L17.5217391,12.8052858 L4.49715217,12.8052858 C3.71944837,12.8052858 3.10869565,12.1081091 3.10869565,11.2482579 L3.10869565,10.8133524 Z" id="Stroke-71" stroke="#FF6E6E" stroke-linejoin="round"></path>
                            <path d="M17.5217391,10.8133524 L24.3043478,10.8133524 L24.3043478,11.2482579 C24.3043478,12.1081091 23.6850662,12.8052858 22.9212854,12.8052858 L17.5217391,12.8052858 L17.5217391,10.8133524 Z" id="Fill-73" fill="#FFFFFF"></path>
                            <path d="M17.5217391,10.8133524 L24.3043478,10.8133524 L24.3043478,11.2482579 C24.3043478,12.1081091 23.6850662,12.8052858 22.9212854,12.8052858 L17.5217391,12.8052858 L17.5217391,10.8133524 Z" id="Stroke-75" stroke="#FF6E6E" stroke-linejoin="round"></path>
                        </g>
                    </g>
                    <path d="M38.7622655,11.2567996 C38.4208432,10.9189297 38.0654852,10.6533246 37.7292886,10.4606183 C38.8098789,10.5100627 39.6634349,10.189942 39.7336935,9.65556241 C39.8155652,9.03180254 38.8017498,8.35479488 37.467996,8.14687492 C36.5749558,8.00805032 35.7370773,8.20709564 35.7370773,8.20709564 C35.7370773,8.20709564 36.4065672,8.0853864 36.7590219,8.03594202 C38.0950983,7.85084255 39.1193655,7.19348586 39.0462036,6.56845819 C38.9736223,5.94343051 37.8314831,5.58717742 36.4954067,5.77291079 C35.8491429,5.86165712 35.2801055,6.06323805 34.8690051,6.31616507 C34.9711996,6.22868655 35.0739747,6.13994023 35.1744272,6.04041757 C36.176049,5.05660119 36.6736663,3.87944461 36.2875339,3.41099081 C35.9014014,2.94317091 34.7772624,3.36091253 33.7762212,4.3447289 C33.2077645,4.90383074 32.8094384,5.52125158 32.6352433,6.03914976 C32.4831129,5.9935088 32.3292406,5.95230515 32.1718843,5.91997613 C32.3803378,5.64232692 32.5806622,5.31713504 32.7571799,4.94693609 C33.3790564,3.64236515 33.4673152,2.34920445 32.9551816,2.05824329 C32.4691773,1.78249579 31.6167826,2.51148344 31.000132,3.70321977 C30.3829007,2.51148344 29.5316673,1.78249579 29.0450823,2.05824329 C28.5329487,2.34920445 28.6212076,3.64236515 29.2425034,4.94693609 C29.4190211,5.31713504 29.6199262,5.64232692 29.827799,5.91997613 C29.6710234,5.95230515 29.517151,5.9935088 29.36444,6.03914976 C29.1908256,5.52125158 28.7924994,4.90383074 28.2240428,4.3447289 C27.2230016,3.36091253 26.0982819,2.94317091 25.7121495,3.41099081 C25.326017,3.87944461 25.824215,5.05660119 26.8252561,6.04041757 C26.9262893,6.13994023 27.0290644,6.22868655 27.1318395,6.31616507 C26.7201584,6.06323805 26.1505404,5.86165712 25.5048573,5.77291079 C24.1682002,5.58717742 23.026061,5.94343051 22.9534797,6.56845819 C22.8808985,7.19348586 23.9051656,7.85084255 25.241242,8.03594202 C25.6453747,8.09299323 26.2631866,8.20709564 26.2631866,8.20709564 C26.2631866,8.20709564 25.1907255,8.04418275 24.5316873,8.14687492 C23.1985142,8.35733049 22.1841181,9.03180254 22.2665704,9.65556241 C22.3368291,10.189942 23.1903851,10.5100627 24.2709753,10.4606183 C23.9347788,10.6533246 23.5794208,10.9189297 23.2379984,11.2567996 C22.2392798,12.2437855 21.7445658,13.4228438 22.1318595,13.888762 C22.4396042,14.2602287 23.2107078,14.0649868 24.0149085,13.4767255 C23.9109721,13.6586555 23.8105196,13.8488261 23.7193575,14.0548444 C23.1334814,15.3797002 23.0806422,16.6747626 23.6003242,16.9486084 C23.9202625,17.1178603 24.3836215,16.8585943 24.829561,16.3248485 C24.3667826,16.1581322 24.0323281,15.6820716 24.0323281,15.121702 C24.0323281,14.4212399 24.5520101,13.8538974 25.1936287,13.8538974 C25.774279,13.8538974 26.0547331,14.2862187 26.0547331,14.9315313 C26.0547331,14.9315313 26.403704,13.7049303 26.1784117,12.2380804 C26.7904171,12.4599462 27.7966841,11.5078249 27.7966841,11.5078249 L27.7966841,9.98709331 C27.7966841,9.98709331 29.9230256,10.6748773 31.000132,10.6748773 C32.0766577,10.6748773 34.2029992,9.98709331 34.2029992,9.98709331 L34.2029992,11.5078249 C34.2029992,11.5078249 35.2098468,12.4599462 35.8218523,12.2380804 C35.5971406,13.7049303 35.9449502,14.9315313 35.9449502,14.9315313 C35.9449502,14.2862187 36.2259849,13.8538974 36.8066352,13.8538974 C37.4476732,13.8538974 37.9679359,14.4212399 37.9679359,15.121702 C37.9679359,15.6820716 37.6334813,16.1581322 37.170703,16.3248485 C37.6154812,16.8585943 38.0794208,17.1178603 38.3999397,16.9486084 C38.9196218,16.6747626 38.8667826,15.3797002 38.2809064,14.0548444 C38.1897443,13.8488261 38.0892918,13.6586555 37.9853554,13.4767255 C38.7895561,14.0649868 39.5606597,14.2602287 39.8678238,13.888762 C40.2556982,13.4228438 39.7609841,12.2437855 38.7622655,11.2567996" id="Fill-54-Copy" fill="#FF6E6E"></path>
                    <path d="M38.7622655,11.2567996 C38.4208432,10.9189297 38.0654852,10.6533246 37.7292886,10.4606183 C38.8098789,10.5100627 39.6634349,10.189942 39.7336935,9.65556241 C39.8155652,9.03180254 38.8017498,8.35479488 37.467996,8.14687492 C36.5749558,8.00805032 35.7370773,8.20709564 35.7370773,8.20709564 C35.7370773,8.20709564 36.4065672,8.0853864 36.7590219,8.03594202 C38.0950983,7.85084255 39.1193655,7.19348586 39.0462036,6.56845819 C38.9736223,5.94343051 37.8314831,5.58717742 36.4954067,5.77291079 C35.8491429,5.86165712 35.2801055,6.06323805 34.8690051,6.31616507 C34.9711996,6.22868655 35.0739747,6.13994023 35.1744272,6.04041757 C36.176049,5.05660119 36.6736663,3.87944461 36.2875339,3.41099081 C35.9014014,2.94317091 34.7772624,3.36091253 33.7762212,4.3447289 C33.2077645,4.90383074 32.8094384,5.52125158 32.6352433,6.03914976 C32.4831129,5.9935088 32.3292406,5.95230515 32.1718843,5.91997613 C32.3803378,5.64232692 32.5806622,5.31713504 32.7571799,4.94693609 C33.3790564,3.64236515 33.4673152,2.34920445 32.9551816,2.05824329 C32.4691773,1.78249579 31.6167826,2.51148344 31.000132,3.70321977 C30.3829007,2.51148344 29.5316673,1.78249579 29.0450823,2.05824329 C28.5329487,2.34920445 28.6212076,3.64236515 29.2425034,4.94693609 C29.4190211,5.31713504 29.6199262,5.64232692 29.827799,5.91997613 C29.6710234,5.95230515 29.517151,5.9935088 29.36444,6.03914976 C29.1908256,5.52125158 28.7924994,4.90383074 28.2240428,4.3447289 C27.2230016,3.36091253 26.0982819,2.94317091 25.7121495,3.41099081 C25.326017,3.87944461 25.824215,5.05660119 26.8252561,6.04041757 C26.9262893,6.13994023 27.0290644,6.22868655 27.1318395,6.31616507 C26.7201584,6.06323805 26.1505404,5.86165712 25.5048573,5.77291079 C24.1682002,5.58717742 23.026061,5.94343051 22.9534797,6.56845819 C22.8808985,7.19348586 23.9051656,7.85084255 25.241242,8.03594202 C25.6453747,8.09299323 26.2631866,8.20709564 26.2631866,8.20709564 C26.2631866,8.20709564 25.1907255,8.04418275 24.5316873,8.14687492 C23.1985142,8.35733049 22.1841181,9.03180254 22.2665704,9.65556241 C22.3368291,10.189942 23.1903851,10.5100627 24.2709753,10.4606183 C23.9347788,10.6533246 23.5794208,10.9189297 23.2379984,11.2567996 C22.2392798,12.2437855 21.7445658,13.4228438 22.1318595,13.888762 C22.4396042,14.2602287 23.2107078,14.0649868 24.0149085,13.4767255 C23.9109721,13.6586555 23.8105196,13.8488261 23.7193575,14.0548444 C23.1334814,15.3797002 23.0806422,16.6747626 23.6003242,16.9486084 C23.9202625,17.1178603 24.3836215,16.8585943 24.829561,16.3248485 C24.3667826,16.1581322 24.0323281,15.6820716 24.0323281,15.121702 C24.0323281,14.4212399 24.5520101,13.8538974 25.1936287,13.8538974 C25.774279,13.8538974 26.0547331,14.2862187 26.0547331,14.9315313 C26.0547331,14.9315313 26.403704,13.7049303 26.1784117,12.2380804 C26.7904171,12.4599462 27.7966841,11.5078249 27.7966841,11.5078249 L27.7966841,9.98709331 C27.7966841,9.98709331 29.9230256,10.6748773 31.000132,10.6748773 C32.0766577,10.6748773 34.2029992,9.98709331 34.2029992,9.98709331 L34.2029992,11.5078249 C34.2029992,11.5078249 35.2098468,12.4599462 35.8218523,12.2380804 C35.5971406,13.7049303 35.9449502,14.9315313 35.9449502,14.9315313 C35.9449502,14.2862187 36.2259849,13.8538974 36.8066352,13.8538974 C37.4476732,13.8538974 37.9679359,14.4212399 37.9679359,15.121702 C37.9679359,15.6820716 37.6334813,16.1581322 37.170703,16.3248485 C37.6154812,16.8585943 38.0794208,17.1178603 38.3999397,16.9486084 C38.9196218,16.6747626 38.8667826,15.3797002 38.2809064,14.0548444 C38.1897443,13.8488261 38.0892918,13.6586555 37.9853554,13.4767255 C38.7895561,14.0649868 39.5606597,14.2602287 39.8678238,13.888762 C40.2556982,13.4228438 39.7609841,12.2437855 38.7622655,11.2567996 Z" id="Stroke-55-Copy" stroke="#FF6E6E" stroke-linecap="round" stroke-linejoin="round"></path>
                    <path d="M38.7622655,11.2567996 C38.4208432,10.9189297 38.0654852,10.6533246 37.7292886,10.4606183 C38.8098789,10.5100627 39.6634349,10.189942 39.7336935,9.65556241 C39.8155652,9.03180254 38.8017498,8.35479488 37.467996,8.14687492 C36.5749558,8.00805032 35.7370773,8.20709564 35.7370773,8.20709564 C35.7370773,8.20709564 36.4065672,8.0853864 36.7590219,8.03594202 C38.0950983,7.85084255 39.1193655,7.19348586 39.0462036,6.56845819 C38.9736223,5.94343051 37.8314831,5.58717742 36.4954067,5.77291079 C35.8491429,5.86165712 35.2801055,6.06323805 34.8690051,6.31616507 C34.9711996,6.22868655 35.0739747,6.13994023 35.1744272,6.04041757 C36.176049,5.05660119 36.6736663,3.87944461 36.2875339,3.41099081 C35.9014014,2.94317091 34.7772624,3.36091253 33.7762212,4.3447289 C33.2077645,4.90383074 32.8094384,5.52125158 32.6352433,6.03914976 C32.4831129,5.9935088 32.3292406,5.95230515 32.1718843,5.91997613 C32.3803378,5.64232692 32.5806622,5.31713504 32.7571799,4.94693609 C33.3790564,3.64236515 33.4673152,2.34920445 32.9551816,2.05824329 C32.4691773,1.78249579 31.6167826,2.51148344 31.000132,3.70321977 C30.3829007,2.51148344 29.5316673,1.78249579 29.0450823,2.05824329 C28.5329487,2.34920445 28.6212076,3.64236515 29.2425034,4.94693609 C29.4190211,5.31713504 29.6199262,5.64232692 29.827799,5.91997613 C29.6710234,5.95230515 29.517151,5.9935088 29.36444,6.03914976 C29.1908256,5.52125158 28.7924994,4.90383074 28.2240428,4.3447289 C27.2230016,3.36091253 26.0982819,2.94317091 25.7121495,3.41099081 C25.326017,3.87944461 25.824215,5.05660119 26.8252561,6.04041757 C26.9262893,6.13994023 27.0290644,6.22868655 27.1318395,6.31616507 C26.7201584,6.06323805 26.1505404,5.86165712 25.5048573,5.77291079 C24.1682002,5.58717742 23.026061,5.94343051 22.9534797,6.56845819 C22.8808985,7.19348586 23.9051656,7.85084255 25.241242,8.03594202 C25.6453747,8.09299323 26.2631866,8.20709564 26.2631866,8.20709564 C26.2631866,8.20709564 25.1907255,8.04418275 24.5316873,8.14687492 C23.1985142,8.35733049 22.1841181,9.03180254 22.2665704,9.65556241 C22.3368291,10.189942 23.1903851,10.5100627 24.2709753,10.4606183 C23.9347788,10.6533246 23.5794208,10.9189297 23.2379984,11.2567996 C22.2392798,12.2437855 21.7445658,13.4228438 22.1318595,13.888762 C22.4396042,14.2602287 23.2107078,14.0649868 24.0149085,13.4767255 C23.9109721,13.6586555 23.8105196,13.8488261 23.7193575,14.0548444 C23.1334814,15.3797002 23.0806422,16.6747626 23.6003242,16.9486084 C23.9202625,17.1178603 24.3836215,16.8585943 24.829561,16.3248485 C24.3667826,16.1581322 24.0323281,15.6820716 24.0323281,15.121702 C24.0323281,14.4212399 24.5520101,13.8538974 25.1936287,13.8538974 C25.774279,13.8538974 26.0547331,14.2862187 26.0547331,14.9315313 C26.0547331,14.9315313 26.403704,13.7049303 26.1784117,12.2380804 C26.7904171,12.4599462 27.7966841,11.5078249 27.7966841,11.5078249 L27.7966841,9.98709331 C27.7966841,9.98709331 29.9230256,10.6748773 31.000132,10.6748773 C32.0766577,10.6748773 34.2029992,9.98709331 34.2029992,9.98709331 L34.2029992,11.5078249 C34.2029992,11.5078249 35.2098468,12.4599462 35.8218523,12.2380804 C35.5971406,13.7049303 35.9449502,14.9315313 35.9449502,14.9315313 C35.9449502,14.2862187 36.2259849,13.8538974 36.8066352,13.8538974 C37.4476732,13.8538974 37.9679359,14.4212399 37.9679359,15.121702 C37.9679359,15.6820716 37.6334813,16.1581322 37.170703,16.3248485 C37.6154812,16.8585943 38.0794208,17.1178603 38.3999397,16.9486084 C38.9196218,16.6747626 38.8667826,15.3797002 38.2809064,14.0548444 C38.1897443,13.8488261 38.0892918,13.6586555 37.9853554,13.4767255 C38.7895561,14.0649868 39.5606597,14.2602287 39.8678238,13.888762 C40.2556982,13.4228438 39.7609841,12.2437855 38.7622655,11.2567996 Z" id="Stroke-55-Copy-2" stroke="#FF6E6E" stroke-linecap="round" stroke-linejoin="round"></path>
                </g>
            </g>
        </g>
    </g>
</svg>